<svg width="49" height="48" viewBox="0 0 49 48" fill="none" xmlns="http://www.w3.org/2000/svg">
<g clip-path="url(#clip0_1808_23697)">
<path d="M1.33301 24H17.1455" stroke="#C6CACC" stroke-linejoin="round"/>
<path d="M31.5205 24H47.333" stroke="#C6CACC" stroke-linejoin="round"/>
<path d="M33.9167 46.6449C33.9167 41.3549 29.6233 37.0615 24.3333 37.0615C19.0433 37.0615 14.75 41.3549 14.75 46.6449" stroke="#C6CACC" stroke-linejoin="round"/>
<path d="M17.1455 24H31.5205" stroke="black" stroke-miterlimit="10"/>
<path d="M24.333 31.1875C28.3026 31.1875 31.5205 27.9695 31.5205 24C31.5205 20.0305 28.3026 16.8125 24.333 16.8125C20.3635 16.8125 17.1455 20.0305 17.1455 24C17.1455 27.9695 20.3635 31.1875 24.333 31.1875Z" stroke="black" stroke-miterlimit="10"/>
<path d="M19.1963 29.0312C20.5092 27.6992 22.3205 26.875 24.3234 26.875C26.3263 26.875 28.1471 27.6992 29.4505 29.0312" stroke="black" stroke-miterlimit="10"/>
<path d="M19.1963 18.9688C20.5092 20.3008 22.3205 21.125 24.3234 21.125C26.3263 21.125 28.1471 20.3008 29.4505 18.9688" stroke="black" stroke-miterlimit="10"/>
<path d="M33.9167 1C33.9167 6.29 29.6233 10.5833 24.3333 10.5833C19.0433 10.5833 14.75 6.29 14.75 1" stroke="#C6CACC" stroke-linejoin="round"/>
<path d="M37.7497 1H10.9163C5.62361 1 1.33301 5.2906 1.33301 10.5833V37.4167C1.33301 42.7094 5.62361 47 10.9163 47H37.7497C43.0424 47 47.333 42.7094 47.333 37.4167V10.5833C47.333 5.2906 43.0424 1 37.7497 1Z" stroke="#7D7D82" stroke-linejoin="round"/>
</g>
<defs>
<clipPath id="clip0_1808_23697">
<rect width="48" height="48" fill="white" transform="translate(0.333008)"/>
</clipPath>
</defs>
</svg>
